<svg width="32" height="32" viewBox="0 0 32 32" fill="none" xmlns="http://www.w3.org/2000/svg">
<path d="M18.6666 12.0001H15.3333C14.2287 12.0001 13.3333 12.8955 13.3333 14.0001C13.3333 15.1047 14.2287 16.0001 15.3333 16.0001H16.6666C17.7712 16.0001 18.6666 16.8955 18.6666 18.0001C18.6666 19.1047 17.7712 20.0001 16.6666 20.0001H13.3333M16 10.6667V12.0001M16 20.0001V21.3334M24 16.0001H24.0133M7.99996 16.0001H8.01329M2.66663 10.9334L2.66663 21.0667C2.66663 22.5602 2.66663 23.307 2.95728 23.8774C3.21294 24.3792 3.62089 24.7871 4.12265 25.0428C4.69308 25.3334 5.43982 25.3334 6.93329 25.3334L25.0666 25.3334C26.5601 25.3334 27.3068 25.3334 27.8773 25.0428C28.379 24.7871 28.787 24.3792 29.0426 23.8774C29.3333 23.307 29.3333 22.5602 29.3333 21.0667V10.9334C29.3333 9.43994 29.3333 8.69321 29.0426 8.12278C28.787 7.62101 28.379 7.21306 27.8773 6.9574C27.3068 6.66675 26.5601 6.66675 25.0666 6.66675L6.93329 6.66675C5.43982 6.66675 4.69308 6.66675 4.12265 6.9574C3.62089 7.21306 3.21294 7.62101 2.95728 8.12277C2.66663 8.6932 2.66663 9.43994 2.66663 10.9334ZM24.6666 16.0001C24.6666 16.3683 24.3681 16.6667 24 16.6667C23.6318 16.6667 23.3333 16.3683 23.3333 16.0001C23.3333 15.6319 23.6318 15.3334 24 15.3334C24.3681 15.3334 24.6666 15.6319 24.6666 16.0001ZM8.66663 16.0001C8.66663 16.3683 8.36815 16.6667 7.99996 16.6667C7.63177 16.6667 7.33329 16.3683 7.33329 16.0001C7.33329 15.6319 7.63177 15.3334 7.99996 15.3334C8.36815 15.3334 8.66663 15.6319 8.66663 16.0001Z" stroke="white" stroke-width="2.66667" stroke-linecap="round" stroke-linejoin="round"/>
</svg>
