<svg width="32" height="32" viewBox="0 0 32 32" fill="none" xmlns="http://www.w3.org/2000/svg">
<path d="M28 28H6.13333C5.3866 28 5.01323 28 4.72801 27.8547C4.47713 27.7268 4.27316 27.5229 4.14532 27.272C4 26.9868 4 26.6134 4 25.8667V4M28 9.33333L20.7542 16.5791C20.4902 16.8431 20.3582 16.9751 20.206 17.0246C20.0721 17.0681 19.9279 17.0681 19.794 17.0246C19.6418 16.9751 19.5098 16.8431 19.2458 16.5791L16.7542 14.0876C16.4902 13.8236 16.3582 13.6916 16.206 13.6421C16.0721 13.5986 15.9279 13.5986 15.794 13.6421C15.6418 13.6916 15.5098 13.8236 15.2458 14.0876L9.33333 20M28 9.33333H22.6667M28 9.33333V14.6667" stroke="white" stroke-width="2.66667" stroke-linecap="round" stroke-linejoin="round"/>
</svg>
