<svg width="32" height="32" viewBox="0 0 32 32" fill="none" xmlns="http://www.w3.org/2000/svg">
<path d="M13.9994 12.003C14.2343 11.3351 14.698 10.772 15.3084 10.4133C15.9187 10.0546 16.6363 9.92347 17.3341 10.0432C18.0319 10.1628 18.6648 10.5256 19.1207 11.0672C19.5766 11.6088 19.8261 12.2943 19.8251 13.0022C19.8251 15.0007 16.8273 16 16.8273 16M16.866 20H16.8793M16.6661 26.6667C22.9253 26.6667 27.9994 21.5926 27.9994 15.3333C27.9994 9.07411 22.9253 4 16.6661 4C10.4069 4 5.33275 9.07411 5.33275 15.3333C5.33275 16.6 5.54055 17.8181 5.92391 18.9555C6.06818 19.3835 6.14031 19.5975 6.15332 19.7619C6.16617 19.9243 6.15646 20.0381 6.11629 20.1959C6.07562 20.3558 5.98581 20.522 5.80621 20.8544L3.62533 24.8911C3.31425 25.4669 3.15871 25.7548 3.19352 25.977C3.22384 26.1706 3.33775 26.341 3.50498 26.443C3.69699 26.5601 4.02248 26.5265 4.67347 26.4592L11.5015 25.7534C11.7083 25.732 11.8117 25.7213 11.9059 25.7249C11.9986 25.7284 12.064 25.7372 12.1544 25.758C12.2463 25.7792 12.3618 25.8237 12.593 25.9127C13.857 26.3997 15.2304 26.6667 16.6661 26.6667Z" stroke="white" stroke-width="2.66667" stroke-linecap="round" stroke-linejoin="round"/>
</svg>
