<svg width="32" height="32" viewBox="0 0 32 32" fill="none" xmlns="http://www.w3.org/2000/svg">
<path d="M15.9999 20L11.9999 16M15.9999 20C17.8624 19.2916 19.6491 18.3983 21.3333 17.3333M15.9999 20V26.6666C15.9999 26.6666 20.0399 25.9333 21.3333 24C22.7733 21.84 21.3333 17.3333 21.3333 17.3333M11.9999 16C12.7094 14.1592 13.6029 12.3947 14.6666 10.7333C16.2202 8.2493 18.3834 6.20405 20.9506 4.79211C23.5178 3.38016 26.4035 2.64848 29.3333 2.66665C29.3333 6.29332 28.2933 12.6667 21.3333 17.3333M11.9999 16H5.33325C5.33325 16 6.06659 11.96 7.99992 10.6667C10.1599 9.22665 14.6666 10.6667 14.6666 10.6667M5.99992 22C3.99992 23.68 3.33325 28.6666 3.33325 28.6666C3.33325 28.6666 8.31992 28 9.99992 26C10.9466 24.88 10.9333 23.16 9.87992 22.12C9.36166 21.6253 8.67898 21.3395 7.96289 21.3174C7.2468 21.2952 6.54775 21.5383 5.99992 22Z" stroke="white" stroke-width="2" stroke-linecap="round" stroke-linejoin="round"/>
</svg>
